REM GENRE Pop
REM DATE 2001
PERFORMER Rockapella
TITLE In Concert
FILE "rockapella_in_concert.mp3" MP3
  TRACK 00 AUDIO
    TITLE I Am Your Man
    PERFORMER Rockapella
    INDEX 01 00:50:00
  TRACK 01 AUDIO
    TITLE Dancin' In the Streets
    PERFORMER Rockapella
    INDEX 01 03:23:00
  TRACK 02 AUDIO
    TITLE That's The Way
    PERFORMER Rockapella
    INDEX 01 05:36:00
  TRACK 03 AUDIO
    TITLE Let's Get Away From It All
    PERFORMER Rockapella
    INDEX 01 08:59:00
  TRACK 04 AUDIO
    TITLE This Isn't Love
    PERFORMER Rockapella
    INDEX 01 11:14:00
  TRACK 05 AUDIO
    TITLE Pretty Woman
    PERFORMER Rockapella
    INDEX 01 15:50:00
  TRACK 06 AUDIO
    TITLE Where in the World Is Carmen Sandiego?
    PERFORMER Rockapella
    INDEX 01 18:54:00
  TRACK 07 AUDIO
    TITLE Blah Blah Blah
    PERFORMER Rockapella
    INDEX 01 22:51:00
  TRACK 08 AUDIO
    TITLE Stand By Me
    PERFORMER Rockapella
    INDEX 01 25:42:00
  TRACK 09 AUDIO
    TITLE Where Would We Be?
    PERFORMER Rockapella
    INDEX 01 28:56:00
  TRACK 10 AUDIO
    TITLE The Lion Sleeps Tonight
    PERFORMER Rockapella
    INDEX 01 32:09:00
  TRACK 11 AUDIO
    TITLE Up on the Roof/Wonderful World
    PERFORMER Rockapella
    INDEX 01 34:47:00
  TRACK 12 AUDIO
    TITLE Tempted
    PERFORMER Rockapella
    INDEX 01 38:42:00
  TRACK 13 AUDIO
    TITLE People Change
    PERFORMER Rockapella
    INDEX 01 42:17:00
  TRACK 14 AUDIO
    TITLE Use Me
    PERFORMER Rockapella
    INDEX 01 45:58:00
  TRACK 15 AUDIO
    TITLE Dock of the Bay
    PERFORMER Rockapella
    INDEX 01 49:33:00
  TRACK 16 AUDIO
    TITLE Zombie Jamboree
    PERFORMER Rockapella
    INDEX 01 52:57:00
  TRACK 17 AUDIO
    TITLE Keep On Smilin'
    PERFORMER Rockapella
    INDEX 01 56:37:00
  TRACK 18 AUDIO
    TITLE 16 Tons
    PERFORMER Rockapella
    INDEX 01 60:20:00
  TRACK 19 AUDIO
    TITLE Moments Of You
    PERFORMER Rockapella
    INDEX 01 63:17:00
  TRACK 20 AUDIO
    TITLE A Change In My Life
    PERFORMER Rockapella
    INDEX 01 66:16:00
  TRACK 21 AUDIO
    TITLE Dummy track
    PERFORMER Rockapella
    INDEX 01 71:13:00
